# xmcd CD database file
#
# Track frame offsets:
#	150
#	20102
#	36977
#	63837
#	86585
#	108622
#	127302
#	142320
#	159255
#	176162
#	191887
#	204227
#
# Disc length: 2854 seconds
#
# Revision: 0
# Processed by: cddbd v1.5.2PL0 Copyright (c) Steve Scherf et al.
# Submitted via: CDex 1.70beta2
#
DISCID=b70b240c
DTITLE=Little Red Rooster - Living Large
DYEAR=1997
DGENRE=Blues
TTITLE0=10 Miles of Bad Road
TTITLE1=Fashion King
TTITLE2=Hot Tub Woman
TTITLE3=Murph's Turf
TTITLE4=Wedding Blues
TTITLE5=Living Large
TTITLE6=What Good Is
TTITLE7=Fixing Things
TTITLE8=Horsham Shuffle
TTITLE9=Jeckyl and Hyde Blues
TTITLE10=Can't Keep Me Down
TTITLE11=I Thank You
EXTD=YEAR: 1997
EXTT0=
EXTT1=
EXTT2=
EXTT3=
EXTT4=
EXTT5=
EXTT6=
EXTT7=
EXTT8=
EXTT9=
EXTT10=
EXTT11=
PLAYORDER=
